#!OML:ASF X:\für Bonn\!DataBase\2005_08_11_Bastian_Final\c3d\Bastian.ASF
:FULLY-SPECIFIED
:DEGREES
203
root 1.52582 12.2304 24.639 -916.028 -38.1764 -893.19
lowerback 77.1482 6.32995 -1.73651
upperback 17.2161 -6.73854 -3.88126
thorax -1.28024 -6.81868 -1.11334
lowerneck -26.7131 -13.4912 -8.99412
upperneck -11.0292 -18.1294 22.1456
head 3.75041 -9.51727 6.05941
rclavicle 2.8625e-014 2.18663e-014
rhumerus 5.84773 22.3115 -65.5656
rradius 58.7946
rwrist -5.35829
rhand -14.4334 8.0761
rfingers 7.12502
rthumb 11.7111 -21.5766
lclavicle 2.8625e-014 2.18663e-014
lhumerus -170.518 -179.097 230.895
lradius 17.0298
lwrist 21.557
lhand -22.9558 -2.20871
lfingers 7.12502
lthumb 3.48575 27.7425
rfemur -58.7358 -20.0678 27.6391
rtibia 97.5573
rfoot -23.1166 -8.41941
rtoes -10.7018
lfemur -53.9625 -2.53496 -14.0949
ltibia 100.565
lfoot -24.6674 -20.0002
ltoes -1.51172
204
root 1.52684 12.0877 24.6512 -916.209 -38.2481 -893.055
lowerback 77.4641 6.34778 -1.65746
upperback 17.3002 -6.78727 -3.91108
thorax -1.15151 -6.85875 -1.1814
lowerneck -26.9356 -13.5409 -8.85589
upperneck -11.028 -18.253 22.2463
head 3.79828 -9.58352 6.03618
rclavicle -2.54444e-014 2.3059e-014
rhumerus 6.19177 22.2266 -65.1931
rradius 58.8286
rwrist -5.02768
rhand -14.3898 8.06262
rfingers 7.12502
rthumb 11.7532 -21.5876
lclavicle -2.54444e-014 2.3059e-014
lhumerus -170.377 -179.65 230.596
lradius 16.8723
lwrist 21.867
lhand -23.21 -1.88104
lfingers 7.12502
lthumb 3.24033 28.0741
rfemur -59.6711 -20.3735 27.8088
rtibia 98.8428
rfoot -23.4024 -8.38427
rtoes -10.5638
lfemur -54.8829 -2.30714 -14.0406
ltibia 101.928
lfoot -24.878 -20.3999
ltoes -0.617711
205
root 1.52737 11.9469 24.664 -916.394 -38.3136 -892.931
lowerback 77.7554 6.35944 -1.59772
upperback 17.3775 -6.85187 -3.96286
thorax -1.03569 -6.90196 -1.25938
lowerneck -27.082 -13.5438 -8.66211
upperneck -11.0609 -18.3288 22.3411
head 3.8144 -9.63402 6.01642
rclavicle 1.24042e-013 -2.54444e-014
rhumerus 6.50869 22.1886 -64.8659
rradius 58.8198
rwrist -4.64182
rhand -14.3778 8.06358
rfingers 7.12502
rthumb 11.7648 -21.586
lclavicle 1.24042e-013 -2.54444e-014
lhumerus -170.333 -180.095 230.233
lradius 16.8198
lwrist 22.3853
lhand -23.4161 -1.48913
lfingers 7.12502
lthumb 3.0413 28.4689
rfemur -60.5763 -20.6527 27.9589
rtibia 100.1
rfoot -23.6737 -8.35332
rtoes -10.4025
lfemur -55.7625 -2.09933 -14.0008
ltibia 103.25
lfoot -25.1203 -20.7517
ltoes 0.00288987
206
root 1.52713 11.8049 24.6773 -916.623 -38.3753 -892.76
lowerback 77.9821 6.35216 -1.48795
upperback 17.4889 -6.89476 -4.00875
thorax -0.890139 -6.93539 -1.35947
lowerneck -27.1892 -13.561 -8.5103
upperneck -11.14 -18.4105 22.4805
head 3.82181 -9.69152 6.0177
rclavicle 5.40694e-014 -7.83212e-014
rhumerus 6.83758 22.1348 -64.5234
rradius 58.7534
rwrist -4.20911
rhand -14.3315 8.08969
rfingers 7.12502
rthumb 11.8094 -21.5573
lclavicle 5.40694e-014 -7.83212e-014
lhumerus -170.233 -180.782 229.977
lradius 16.6912
lwrist 22.6261
lhand -23.5654 -1.16973
lfingers 7.12502
lthumb 2.8971 28.7903
rfemur -61.4777 -20.9395 28.1552
rtibia 101.333
rfoot -23.915 -8.34983
rtoes -10.172
lfemur -56.6582 -1.8786 -13.9269
ltibia 104.57
lfoot -25.3291 -21.1003
ltoes 0.674614
